<?xml version="1.0" encoding="UTF-8"?>
<svg width="2316" height="3162" viewBox="-122 -131 1158 1581"
	xmlns="http://www.w3.org/2000/svg"
	xmlns:xlink="http://www.w3.org/1999/xlink">
	<defs>
		<path id="arrowleft" d="M0,0L18-5V5z"/>
		<use id="arrowright" xlink:href="#arrowleft" transform="rotate(180)"/>
		<use id="arrowup" xlink:href="#arrowleft" transform="rotate(90)"/>
		<use id="arrowdown" xlink:href="#arrowleft" transform="rotate(270)"/>
	</defs>
	<g stroke="#000" stroke-width="1">
		<rect x="0" y="0" width="1000" height="1414" fill="#818181"/>
		<rect x="0" y="707" width="1000" height="707" fill="#fff"/>
		<rect x="500" y="0" width="500" height="707" fill="#e9f1f5"/>
		<rect x="0" y="353.5" width="500" height="353.5" fill="#dbe7ee"/>
		<rect x="250" y="0" width="250" height="353.5" fill="#c9dbe5"/>
		<rect x="0" y="176.75" width="250" height="176.75" fill="#b7cfdc"/>
		<rect x="125" y="0" width="125" height="176.75" fill="#a5c3d4"/>
		<rect x="0" y="88.375" width="125" height="88.375" fill="#92b7cb"/>
		<rect x="62.5" y="0" width="62.5" height="88.375" fill="#7ca8c0"/>
	</g>

	<g font-family="Bitstream Vera Sans" text-anchor="middle">
		<text x="500" y="833" font-size="350" fill="#fff" stroke="#000" stroke-width="4.5">A0</text>
		<text x="508" y="1135" font-size="210">A1</text>
		<text x="756" y="413" font-size="164">A2</text>
		<text x="253" y="575" font-size="128">A3</text>
		<text x="376" y="213" font-size="100">A4</text>
		<text x="127" y="294" font-size="78">A5</text>
		<text x="189" y="110" font-size="61">A6</text>
		<text x="65" y="151" font-size="48">A7</text>
		<text x="96" y="58" font-size="37">A8</text>
	</g>
	<g fill="none" stroke="#000" stroke-width="1">
		<path d="m0,0 0,-100"/>
		<path d="m1000,0 0,-100"/>
		<path d="m62.5,0 0,-40"/>
		<path d="m125,0 0,-40"/>
		<path d="m250,0 0,-40"/>
		<path d="m500,0 0,-40"/>
		<path d="m0,0 -100,0"/>
		<path d="m0,1414 -100,0"/>
		<path d="m0,88.375 -40,0"/>
		<path d="m0,176.75 -40,0"/>
		<path d="m0,353.5 -40,0"/>
		<path d="m0,707 -40,0"/>
	</g>
	<use xlink:href="#arrowleft" x="0" y="-88"/>
	<use xlink:href="#arrowright" x="1000" y="-88"/>
	<use xlink:href="#arrowleft" x="62.5" y="-28"/>
	<use xlink:href="#arrowright" x="125" y="-28"/>
	<use xlink:href="#arrowleft" x="125" y="-28"/>
	<use xlink:href="#arrowright" x="250" y="-28"/>
	<use xlink:href="#arrowleft" x="250" y="-28"/>
	<use xlink:href="#arrowright" x="500" y="-28"/>
	<use xlink:href="#arrowleft" x="500" y="-28"/>
	<use xlink:href="#arrowright" x="1000" y="-28"/>

	<use xlink:href="#arrowup" x="-88" y="0"/>
	<use xlink:href="#arrowdown" x="-88" y="1414"/>
	<use xlink:href="#arrowup" x="-28" y="88.375"/>
	<use xlink:href="#arrowdown" x="-28" y="176.75"/>
	<use xlink:href="#arrowup" x="-28" y="176.75"/>
	<use xlink:href="#arrowdown" x="-28" y="353.5"/>
	<use xlink:href="#arrowup" x="-28" y="353.5"/>
	<use xlink:href="#arrowdown" x="-28" y="707"/>
	<use xlink:href="#arrowup" x="-28" y="707"/>
	<use xlink:href="#arrowdown" x="-28" y="1414"/>
	<g fill="none" stroke="#000" stroke-width="3">
		<path d="M17,-88 420,-88M580,-88 983,-88"/>
		<path d="M79.5,-28 108,-28"/>
		<path d="M142,-28 233,-28"/>
		<path d="M267,-28 310,-28M440,-28 483,-28"/>
		<path d="M517,-28 687,-28M813,-28 983,-28"/>
		<path d="M-88,17 -88,624M-88,790 -88,1397"/>
		<path d="M-28,105.375 -28,159.75"/>
		<path d="M-28,193.75 -28,204.75M-28,325.5 -28,336.5"/>
		<path d="M-28,370.5 -28,463.5M-28,597 -28,690"/>
		<path d="M-28,724 -28,992M-28,1129 -28,1397"/>
	</g>
	<g font-family="Bitstream Vera Sans" text-anchor="middle">
		<text x="500" y="-77" font-size="22">841 mm</text>
		<text x="750" y="-17" font-size="22">420 mm</text>
		<text x="375" y="-17" font-size="22">210 mm</text>
		<text x="187.5" y="-45" font-size="22">105 mm</text>
		<text x="93.75" y="-45" font-size="22">52 mm</text>
	</g>
	<g font-family="Bitstream Vera Sans" text-anchor="middle" transform="rotate(-90)">
		<text x="-707" y="-77" font-size="22">1189 mm</text>
		<text x="-1060.5" y="-17" font-size="22">594 mm</text>
		<text x="-530.25" y="-17" font-size="22">297 mm</text>
		<text x="-265.125" y="-17" font-size="22">148 mm</text>
		<text x="-132.5625" y="-45" font-size="22">74 mm</text>
	</g>
</svg>
